Coordinates
version=1
nRows=17
nColumns=40
inDegrees=yes

Units are S.I. units (second, meters, Newtons, ...)
If the header above contains a line with 'inDegrees', this indicates whether rotational values are in degrees (yes) or radians (no).

endheader
time	pelvis_tilt	pelvis_list	pelvis_rotation	pelvis_tx	pelvis_ty	pelvis_tz	hip_flexion_r	hip_adduction_r	hip_rotation_r	knee_angle_r	knee_angle_r_beta	ankle_angle_r	subtalar_angle_r	mtp_angle_r	hip_flexion_l	hip_adduction_l	hip_rotation_l	knee_angle_l	knee_angle_l_beta	ankle_angle_l	subtalar_angle_l	mtp_angle_l	lumbar_extension	lumbar_bending	lumbar_rotation	arm_flex_r	arm_add_r	arm_rot_r	elbow_flex_r	pro_sup_r	wrist_flex_r	wrist_dev_r	arm_flex_l	arm_add_l	arm_rot_l	elbow_flex_l	pro_sup_l	wrist_flex_l	wrist_dev_l
      6.02500000	    -24.93271307	      2.13391349	      7.60265489	     -0.31774423	      0.86237101	     -0.98825633	     34.69656745	    -12.89171610	     -1.24022933	     90.80042452	      1.58476637	     -8.90715716	      0.00000000	      0.00000000	     63.45213156	      5.70249498	     -5.26037713	     68.22863574	      1.19081434	     20.04837521	      0.00000000	      0.00000000	      2.09588878	    -11.30699219	    -11.73192582	     89.94672012	     -3.94320697	     32.31942569	     54.74470290	     84.16139220	      0.00000000	      0.00000000	     89.96817743	    -14.61323607	     32.13770626	     58.39092032	     84.48212170	      0.00000000	      0.00000000
      6.03000000	    -24.90445373	      2.13059098	      7.56466017	     -0.31751308	      0.86319748	     -0.98823703	     34.67003556	    -12.83300305	     -1.22353283	     90.75122615	      1.58390770	     -8.91667095	      0.00000000	      0.00000000	     63.31173124	      5.69296481	     -5.22643423	     68.04522338	      1.18761319	     20.02304391	      0.00000000	      0.00000000	      2.09480093	    -11.28548641	    -11.71171574	     89.94664328	     -3.93414625	     32.36893041	     54.59413019	     84.15885068	      0.00000000	      0.00000000	     89.96812344	    -14.64417970	     32.20393617	     58.34199495	     84.50158594	      0.00000000	      0.00000000
      6.03500000	    -24.88417393	      2.11572744	      7.53613376	     -0.31722521	      0.86398973	     -0.98828157	     34.65549024	    -12.80730313	     -1.28837988	     90.73790881	      1.58367527	     -8.93752782	      0.00000000	      0.00000000	     63.20468733	      5.68958460	     -5.20544334	     67.90358323	      1.18514110	     19.99562464	      0.00000000	      0.00000000	      2.11743317	    -11.24361707	    -11.67383037	     89.94655995	     -3.94112546	     32.42180835	     54.49579614	     84.15738235	      0.00000000	      0.00000000	     89.96803448	    -14.64782362	     32.24668317	     58.34006486	     84.51720217	      0.00000000	      0.00000000
      6.04000000	    -24.86344458	      2.09047758	      7.52031234	     -0.31695463	      0.86478638	     -0.98835328	     34.62695336	    -12.76557767	     -1.31961565	     90.66119094	      1.58233629	     -8.97379692	      0.00000000	      0.00000000	     63.08133280	      5.69119878	     -5.12729688	     67.74316588	      1.18234129	     19.93658401	      0.00000000	      0.00000000	      2.15489880	    -11.17512944	    -11.67596023	     89.94652676	     -3.88633207	     32.45659207	     54.52624076	     84.15758489	      0.00000000	      0.00000000	     89.96801359	    -14.68371307	     32.24109967	     58.31701522	     84.52141970	      0.00000000	      0.00000000
      6.04500000	    -24.80176440	      2.07145314	      7.50724129	     -0.31666479	      0.86563501	     -0.98831583	     34.56180004	    -12.69865388	     -1.35815345	     90.59539787	      1.58118798	     -8.97391270	      0.00000000	      0.00000000	     62.91531034	      5.69939458	     -5.04222173	     67.57194930	      1.17935300	     19.86594534	      0.00000000	      0.00000000	      2.13556028	    -11.13775749	    -11.65835407	     89.94646321	     -3.90080887	     32.49119288	     54.60070816	     84.15801564	      0.00000000	      0.00000000	     89.96794131	    -14.71749361	     32.36458623	     58.29858962	     84.55494504	      0.00000000	      0.00000000
      6.05000000	    -24.77042727	      2.05933653	      7.44712812	     -0.31641834	      0.86651624	     -0.98830580	     34.54630225	    -12.65576730	     -1.39085459	     90.54367065	      1.58028517	     -8.97933083	      0.00000000	      0.00000000	     62.77676379	      5.66830950	     -5.00885677	     67.38964106	      1.17617112	     19.81334318	      0.00000000	      0.00000000	      2.14545345	    -11.08933812	    -11.60443158	     89.94632894	     -3.90065755	     32.54784292	     54.53900076	     84.15782313	      0.00000000	      0.00000000	     89.96784708	    -14.74771739	     32.38376051	     58.27775293	     84.56925494	      0.00000000	      0.00000000
      6.05500000	    -24.68418136	      2.03070481	      7.42813693	     -0.31607253	      0.86746536	     -0.98832825	     34.45677004	    -12.59789876	     -1.45592547	     90.47662098	      1.57911493	     -8.97401038	      0.00000000	      0.00000000	     62.55889353	      5.63964556	     -4.98868400	     67.18101516	      1.17252991	     19.76866350	      0.00000000	      0.00000000	      2.08908024	    -11.03409337	    -11.57276255	     89.94619707	     -3.92701512	     32.61633434	     54.41310934	     84.15688972	      0.00000000	      0.00000000	     89.96779955	    -14.73660192	     32.44905500	     58.27712646	     84.58911247	      0.00000000	      0.00000000
      6.06000000	    -24.67275081	      2.04337854	      7.39995408	     -0.31584568	      0.86817123	     -0.98830515	     34.45380056	    -12.58442702	     -1.47720755	     90.45906173	      1.57880847	     -8.97727037	      0.00000000	      0.00000000	     62.50831654	      5.63991792	     -4.97063303	     67.15791549	      1.17212674	     19.75637188	      0.00000000	      0.00000000	      2.13020556	    -11.03993682	    -11.56835249	     89.94628716	     -3.90662909	     32.60793128	     54.44400207	     84.15662260	      0.00000000	      0.00000000	     89.96778644	    -14.73996668	     32.43188551	     58.28605343	     84.58809659	      0.00000000	      0.00000000
      6.06500000	    -24.61242007	      2.01249399	      7.32828884	     -0.31554666	      0.86918657	     -0.98822903	     34.40280147	    -12.49707780	     -1.50726914	     90.38078464	      1.57744227	     -8.97919925	      0.00000000	      0.00000000	     62.28940069	      5.60518253	     -4.87265229	     66.86579850	      1.16702834	     19.64927892	      0.00000000	      0.00000000	      2.12435816	    -10.95734208	    -11.50572955	     89.94599801	     -3.85658849	     32.65634827	     54.51427633	     84.15976384	      0.00000000	      0.00000000	     89.96773533	    -14.80362605	     32.46869572	     58.21010559	     84.59993210	      0.00000000	      0.00000000
      6.07000000	    -24.54045101	      1.99191944	      7.30417223	     -0.31532986	      0.87014974	     -0.98818388	     34.32809107	    -12.43421000	     -1.55524925	     90.28530542	      1.57577585	     -8.94930049	      0.00000000	      0.00000000	     62.09953483	      5.59370986	     -4.81279721	     66.65737315	      1.16339063	     19.56495201	      0.00000000	      0.00000000	      2.07489956	    -10.91946313	    -11.48480410	     89.94598557	     -3.88617658	     32.70910844	     54.49306152	     84.16044391	      0.00000000	      0.00000000	     89.96769862	    -14.82387580	     32.54547602	     58.19052473	     84.62224965	      0.00000000	      0.00000000
      6.07500000	    -24.48249968	      1.96936494	      7.26748245	     -0.31506925	      0.87118335	     -0.98817382	     34.27436427	    -12.36644943	     -1.59571742	     90.20421683	      1.57436058	     -8.94437942	      0.00000000	      0.00000000	     61.91861853	      5.57335925	     -4.75694139	     66.45327326	      1.15982842	     19.48532957	      0.00000000	      0.00000000	      2.04326976	    -10.87416958	    -11.44754068	     89.94592319	     -3.92894111	     32.80691879	     54.33124909	     84.15973363	      0.00000000	      0.00000000	     89.96764234	    -14.83150690	     32.61381166	     58.20391179	     84.63893360	      0.00000000	      0.00000000
      6.08000000	    -24.40726596	      1.95344105	      7.21111142	     -0.31472134	      0.87203768	     -0.98805879	     34.20357242	    -12.30323461	     -1.64801666	     90.18261167	      1.57398350	     -8.93886849	      0.00000000	      0.00000000	     61.74328840	      5.51199482	     -4.75875211	     66.30098477	      1.15717048	     19.44133679	      0.00000000	      0.00000000	      2.03314520	    -10.82514253	    -11.41409132	     89.94589663	     -3.86014115	     32.83383307	     54.42531809	     84.16147318	      0.00000000	      0.00000000	     89.96762241	    -14.87281936	     32.60287246	     58.17629717	     84.64613282	      0.00000000	      0.00000000
      6.08500000	    -24.32298589	      1.92725105	      7.17834467	     -0.31445715	      0.87314255	     -0.98806635	     34.11892911	    -12.20928006	     -1.65701115	     90.11823439	      1.57285991	     -8.96279941	      0.00000000	      0.00000000	     61.53290239	      5.47777540	     -4.69114478	     66.10568685	      1.15376189	     19.37716994	      0.00000000	      0.00000000	      1.97800976	    -10.77171408	    -11.38067130	     89.94575707	     -3.89103531	     32.87044645	     54.41604956	     84.16075829	      0.00000000	      0.00000000	     89.96756309	    -14.88406726	     32.67043514	     58.17490198	     84.66543216	      0.00000000	      0.00000000
      6.09000000	    -24.31509764	      1.94033900	      7.15436100	     -0.31420278	      0.87397913	     -0.98802524	     34.13371258	    -12.18884156	     -1.69498733	     90.07890130	      1.57217341	     -8.95902714	      0.00000000	      0.00000000	     61.47890524	      5.47613240	     -4.69066851	     66.07539999	      1.15323328	     19.36866648	      0.00000000	      0.00000000	      2.00400599	    -10.78039658	    -11.36884361	     89.94562890	     -3.88021101	     32.85986954	     54.43633214	     84.16019616	      0.00000000	      0.00000000	     89.96745808	    -14.89693148	     32.65276166	     58.18314094	     84.66554680	      0.00000000	      0.00000000
      6.09500000	    -24.23280404	      1.89004773	      7.10637046	     -0.31387549	      0.87510808	     -0.98792273	     34.02456971	    -12.06869459	     -1.76165428	     89.92888416	      1.56955512	     -8.97843405	      0.00000000	      0.00000000	     61.19258483	      5.40722847	     -4.66126873	     65.68564487	      1.14643077	     19.24969865	      0.00000000	      0.00000000	      1.96959629	    -10.69471691	    -11.32580069	     89.94546444	     -3.87150598	     32.95584704	     54.39323809	     84.16317106	      0.00000000	      0.00000000	     89.96743762	    -14.92878783	     32.78339637	     58.12335803	     84.68565149	      0.00000000	      0.00000000
      6.10000000	    -24.22384422	      1.89322306	      7.09052711	     -0.31358529	      0.87605514	     -0.98800449	     34.02715778	    -12.06477713	     -1.78786943	     89.88615802	      1.56880941	     -8.98020073	      0.00000000	      0.00000000	     61.12269628	      5.40901875	     -4.65112112	     65.64583147	      1.14573590	     19.23346312	      0.00000000	      0.00000000	      1.99383885	    -10.67794866	    -11.31334277	     89.94524834	     -3.87093678	     32.94973401	     54.40041217	     84.16255875	      0.00000000	      0.00000000	     89.96739209	    -14.93910445	     32.76589192	     58.13744669	     84.68576058	      0.00000000	      0.00000000
      6.10500000	    -24.04702584	      1.86729402	      7.04596689	     -0.31314668	      0.87731065	     -0.98789025	     33.81242908	    -11.95482534	     -1.86130634	     89.78584927	      1.56705869	     -9.03442636	      0.00000000	      0.00000000	     60.73064451	      5.38702414	     -4.54426021	     65.23174154	      1.13850867	     19.00801063	      0.00000000	      0.00000000	      1.87452347	    -10.61354868	    -11.25476363	     89.94520368	     -3.86597493	     33.09739022	     54.27339401	     84.16525716	      0.00000000	      0.00000000	     89.96732338	    -14.97378552	     32.89551069	     58.09118498	     84.71364583	      0.00000000	      0.00000000
